<svg width="24" height="24" viewBox="0 0 24 24" fill="none" xmlns="http://www.w3.org/2000/svg">
<path fill-rule="evenodd" clip-rule="evenodd" d="M3 11.291C3 13.974 4.42 16.336 6.599 17.825C6.598 18.68 6.6 19.832 6.6 21.041L10.131 19.294C10.735 19.41 11.359 19.473 12 19.473C16.952 19.473 21 15.83 21 11.291C21 6.75199 16.952 3.10899 12 3.10899C7.048 3.10899 3 6.75199 3 11.291Z" stroke="#653DF5" stroke-width="1.5" stroke-linecap="round" stroke-linejoin="round"/>
<path d="M11.899 12.328V12.121C11.899 11.443 12.318 11.076 12.738 10.794C13.148 10.518 13.559 10.158 13.559 9.49399C13.559 8.57699 12.816 7.83499 11.9 7.83499C10.984 7.83499 10.24 8.57599 10.24 9.49299" stroke="#653DF5" stroke-width="1.5" stroke-linecap="round" stroke-linejoin="round"/>
<path d="M11.898 14.667C11.815 14.667 11.748 14.734 11.749 14.817C11.749 14.9 11.816 14.967 11.899 14.967C11.982 14.967 12.049 14.9 12.049 14.817C12.049 14.734 11.983 14.667 11.898 14.667" stroke="#653DF5" stroke-width="1.5" stroke-linecap="round" stroke-linejoin="round"/>
</svg>
