<svg width="1216" height="460" viewBox="0 0 1216 460" fill="none" xmlns="http://www.w3.org/2000/svg">
    <path
        d="M154.102 214H-286.773C-304.765 214 -308.621 215.291 -318.902 225.621L-668.434 550.967C-678.715 561.297 -680 565.171 -680 583.247V774.343C-680 882.77 -626.023 937 -518.07 937H-77.1951C-59.235 937 -55.3795 935.709 -45.0982 925.379L304.466 600.033C314.715 589.703 316 585.829 316 567.753V376.69C316 268.23 262.055 214 154.102 214Z"
        fill="white" fill-opacity="0.03" />
    <path
        d="M510.102 -668H69.2272C51.235 -668 47.3795 -666.709 37.0982 -656.379L-312.434 -331.033C-322.715 -320.703 -324 -316.829 -324 -298.753V-107.657C-324 0.770203 -270.023 55 -162.07 55H278.805C296.765 55 300.621 53.7088 310.902 43.3793L660.466 -281.967C670.715 -292.297 672 -296.171 672 -314.247V-505.31C672 -613.77 618.055 -668 510.102 -668Z"
        fill="white" fill-opacity="0.03" />
    <path
        d="M717.898 -668H1158.77C1176.77 -668 1180.62 -666.709 1190.9 -656.379L1540.43 -331.033C1550.71 -320.703 1552 -316.829 1552 -298.753V-107.657C1552 0.770203 1498.02 55 1390.07 55H949.195C931.235 55 927.379 53.7088 917.098 43.3793L567.534 -281.967C557.285 -292.297 556 -296.171 556 -314.247V-505.31C556 -613.77 609.945 -668 717.898 -668Z"
        fill="white" fill-opacity="0.03" />
    <path
        d="M1061.9 214H1502.77C1520.77 214 1524.62 215.291 1534.9 225.621L1884.43 550.967C1894.71 561.297 1896 565.171 1896 583.247V774.343C1896 882.77 1842.02 937 1734.07 937H1293.2C1275.23 937 1271.38 935.709 1261.1 925.379L911.534 600.033C901.285 589.703 900 585.829 900 567.753V376.69C900 268.23 953.945 214 1061.9 214Z"
        fill="white" fill-opacity="0.03" />
</svg>
    