<svg width="168" height="31" viewBox="0 0 168 31" fill="none" xmlns="http://www.w3.org/2000/svg">
    <path
        d="M43.652 24.3236C38.4199 24.3236 34.2127 19.9816 34.2127 14.7226C34.2127 9.46355 38.4199 5.09452 43.652 5.09452C46.6995 5.09452 49.3695 6.5239 51.0415 8.70841L48.5604 10.5963C47.4277 9.11295 45.7556 8.16902 43.7329 8.16902C40.1999 8.16902 37.5299 11.1626 37.5299 14.7226C37.5299 18.2825 40.146 21.2491 43.7329 21.2491C45.7556 21.2491 47.4277 20.3052 48.5604 18.8219L51.0415 20.7097C49.3695 22.8943 46.6995 24.3236 43.652 24.3236ZM55.9584 24H52.83V4.55514H55.9584V24ZM64.7748 24.3236C61.1879 24.3236 58.0864 21.6806 58.0864 17.6892C58.0864 13.6977 61.1879 11.0817 64.7748 11.0817C68.3617 11.0817 71.4902 13.6977 71.4902 17.6892C71.4902 21.6806 68.3617 24.3236 64.7748 24.3236ZM64.7748 21.4109C66.7166 21.4109 68.3348 19.9007 68.3348 17.6892C68.3348 15.5316 66.7166 13.9944 64.7748 13.9944C62.833 13.9944 61.2418 15.5316 61.2418 17.6892C61.2418 19.9007 62.833 21.4109 64.7748 21.4109ZM82.4167 18.1477V11.4053H85.5452V24H82.4167V22.0312C81.7695 23.6224 79.7738 24.3236 78.5062 24.3236C75.2699 24.3236 73.4629 22.1391 73.4629 18.4713V11.4053H76.5914V18.3364C76.5914 20.3591 77.805 21.4109 79.2074 21.4109C80.6368 21.4109 82.4167 20.6019 82.4167 18.1477ZM98.088 13.0505V4.55514H101.216V24H98.088V22.3279C97.225 23.6494 95.445 24.3236 93.9078 24.3236C90.5905 24.3236 87.7048 21.7076 87.7048 17.6892C87.7048 13.6438 90.5636 11.0817 93.8808 11.0817C95.472 11.0817 97.225 11.729 98.088 13.0505ZM94.3932 21.4109C96.308 21.4109 98.0341 19.8737 98.0341 17.6622C98.0341 15.4507 96.2002 13.9944 94.3932 13.9944C92.4514 13.9944 90.8602 15.5586 90.8602 17.6622C90.8602 19.7658 92.4514 21.4109 94.3932 21.4109ZM111.177 11.0817C114.71 11.0817 117.569 13.8595 117.569 17.6892C117.569 21.5188 114.71 24.3236 111.177 24.3236C109.073 24.3236 107.078 23.2449 106.161 21.5188V24H104.435V4.55514H106.161V13.8595C107.105 12.1335 109.046 11.0817 111.177 11.0817ZM111.042 22.6785C113.712 22.6785 115.87 20.467 115.87 17.6622C115.87 14.8844 113.712 12.7268 111.042 12.7268C108.534 12.7268 106.161 14.6956 106.161 17.7431C106.161 20.6558 108.426 22.6785 111.042 22.6785ZM125.935 24.3236C122.349 24.3236 119.355 21.6806 119.355 17.6892C119.355 13.6977 122.349 11.0817 125.935 11.0817C129.522 11.0817 132.543 13.6977 132.543 17.6892C132.543 21.6806 129.522 24.3236 125.935 24.3236ZM125.935 22.6785C128.578 22.6785 130.817 20.6558 130.817 17.6892C130.817 14.7226 128.578 12.7268 125.935 12.7268C123.266 12.7268 121.081 14.7226 121.081 17.6892C121.081 20.6558 123.266 22.6785 125.935 22.6785ZM140.876 24.3236C137.289 24.3236 134.296 21.6806 134.296 17.6892C134.296 13.6977 137.289 11.0817 140.876 11.0817C144.463 11.0817 147.484 13.6977 147.484 17.6892C147.484 21.6806 144.463 24.3236 140.876 24.3236ZM140.876 22.6785C143.519 22.6785 145.758 20.6558 145.758 17.6892C145.758 14.7226 143.519 12.7268 140.876 12.7268C138.206 12.7268 136.022 14.7226 136.022 17.6892C136.022 20.6558 138.206 22.6785 140.876 22.6785ZM153.659 24.3236C151.475 24.3236 149.29 23.0561 149.074 20.6558H150.665C150.854 21.7076 151.825 22.7864 153.659 22.7864C155.466 22.7864 156.572 21.8425 156.572 20.5749C156.572 19.5501 155.871 18.8758 154.576 18.5522L152.769 18.1207C150.989 17.6892 149.56 16.7722 149.56 14.6686C149.56 12.619 151.313 11.0817 153.713 11.0817C155.817 11.0817 157.758 12.2414 157.839 14.5068H156.167C156.086 13.3741 154.981 12.619 153.74 12.619C152.284 12.619 151.286 13.5089 151.286 14.6956C151.286 15.8822 152.311 16.3947 153.228 16.6104L155.088 17.0689C157.543 17.6622 158.298 19.1455 158.298 20.6019C158.298 22.8403 156.275 24.3236 153.659 24.3236ZM163.414 11.4053H166.3V12.8886H163.414V24H161.715V12.8886H159.423V11.4053H161.715V6.68571H163.414V11.4053Z"
        fill="white" />
    <path
        d="M21.1374 5.82732H10.0118C9.55778 5.82732 9.46048 5.86131 9.20103 6.13326L0.380491 14.6989C0.121039 14.9709 0.0886078 15.0729 0.0886078 15.5488V20.5799C0.0886078 23.4346 1.45073 24.8623 4.17497 24.8623H15.3006C15.7538 24.8623 15.8511 24.8284 16.1105 24.5564L24.9319 15.9907C25.1905 15.7188 25.223 15.6168 25.223 15.1409V10.1106C25.223 7.25507 23.8617 5.82732 21.1374 5.82732Z"
        fill="#653DF5" />
</svg>
    